<svg xmlns="http://www.w3.org/2000/svg" viewBox="0 0 512 512" width="512" height="512">
  <defs>
    <linearGradient id="blueA" x1="80" y1="80" x2="430" y2="430">
      <stop offset="0" stop-color="#2F7FE8"/>
      <stop offset="0.42" stop-color="#0E3F91"/>
      <stop offset="1" stop-color="#071A4A"/>
    </linearGradient>
    <linearGradient id="blueB" x1="120" y1="70" x2="420" y2="250">
      <stop offset="0" stop-color="#5DBBFF"/>
      <stop offset="0.45" stop-color="#144EA7"/>
      <stop offset="1" stop-color="#061B54"/>
    </linearGradient>
    <linearGradient id="shine" x1="0" y1="0" x2="1" y2="1">
      <stop offset="0" stop-color="#ffffff" stop-opacity="0.55"/>
      <stop offset="0.18" stop-color="#7EC8F0" stop-opacity="0.55"/>
      <stop offset="0.42" stop-color="#ffffff" stop-opacity="0"/>
    </linearGradient>
    <filter id="shadow" x="-20%" y="-20%" width="140%" height="140%">
      <feDropShadow dx="0" dy="12" stdDeviation="12" flood-color="#000000" flood-opacity="0.34"/>
      <feDropShadow dx="0" dy="0" stdDeviation="8" flood-color="#7EC8F0" flood-opacity="0.20"/>
    </filter>
  </defs>

  <g filter="url(#shadow)">
    <path d="M58 142 L253 48 L454 142 L382 170 L256 112 L132 170 Z" fill="url(#blueB)" stroke="#061B54" stroke-width="12" stroke-linejoin="round"/>
    <path d="M100 142 L253 72 L408 142" fill="none" stroke="#7EC8F0" stroke-width="5" opacity="0.65" stroke-linecap="round"/>

    <path d="M151 185 C216 156 297 156 361 185 L374 243 C306 223 250 250 256 278 C226 239 190 224 136 243 Z" fill="url(#blueA)" stroke="#061B54" stroke-width="11" stroke-linejoin="round"/>
    <path d="M157 185 C218 160 294 160 355 185" fill="none" stroke="#ffffff" stroke-width="8" opacity="0.85" stroke-linecap="round"/>

    <path d="M105 283 L152 283 C189 283 207 298 222 335 L273 462 L229 462 L176 329 C166 305 151 295 127 295 L105 295 Z" fill="url(#blueA)" stroke="#061B54" stroke-width="12" stroke-linejoin="round"/>
    <path d="M105 335 L151 335 L151 462 L105 462 Z" fill="url(#blueA)" stroke="#061B54" stroke-width="12" stroke-linejoin="round"/>
    <path d="M275 462 L330 329 C342 302 363 283 407 283 L363 462 Z" fill="url(#blueA)" stroke="#061B54" stroke-width="12" stroke-linejoin="round"/>
    <path d="M125 291 C167 291 189 309 204 349" fill="none" stroke="#7EC8F0" stroke-width="5" opacity="0.62" stroke-linecap="round"/>
    <path d="M339 335 C352 308 372 294 400 291" fill="none" stroke="#7EC8F0" stroke-width="5" opacity="0.62" stroke-linecap="round"/>

    <path d="M373 111 C408 106 426 126 426 159 L426 202" fill="none" stroke="#061B54" stroke-width="28" stroke-linecap="round"/>
    <path d="M373 111 C408 106 426 126 426 159 L426 202" fill="none" stroke="#ffffff" stroke-width="8" opacity="0.9" stroke-linecap="round"/>
    <path d="M426 202 L426 294" stroke="#061B54" stroke-width="18" stroke-linecap="round"/>
    <circle cx="426" cy="245" r="22" fill="url(#blueA)" stroke="#061B54" stroke-width="9"/>
    <path d="M426 268 C419 310 416 334 432 371" fill="none" stroke="#061B54" stroke-width="14" stroke-linecap="round"/>
    <path d="M442 268 C439 309 446 337 468 365" fill="none" stroke="#061B54" stroke-width="14" stroke-linecap="round"/>
    <path d="M410 268 C399 310 395 335 405 372" fill="none" stroke="#061B54" stroke-width="14" stroke-linecap="round"/>

    <path d="M130 470 C190 486 318 486 378 470" fill="none" stroke="#000000" stroke-width="10" opacity="0.12" stroke-linecap="round"/>
    <path d="M70 142 L253 58 L440 142" fill="none" stroke="url(#shine)" stroke-width="10" opacity="0.7" stroke-linecap="round"/>
  </g>
</svg>
